<svg xmlns="http://www.w3.org/2000/svg" width="512" height="512" viewBox="0 0 512 512">
  <path d="M115 256 44 165c-16-20 2-48 26-39l108 40c57-65 185-42 236 53 15 27 15 47 0 74-51 95-179 118-236 53L70 386c-24 9-42-19-26-39z" fill="#ffbb57" stroke="#3b285f" stroke-width="18" stroke-linejoin="round"/>
  <path d="M208 162c-15 57-15 131 0 188M276 145c-19 70-19 152 0 222" fill="none" stroke="#ff6d68" stroke-width="31"/>
  <circle cx="361" cy="224" r="25" fill="#fff"/>
  <circle cx="366" cy="225" r="12" fill="#28335f"/>
  <path d="M371 293c-19 15-41 17-62 4" fill="none" stroke="#3b285f" stroke-width="12" stroke-linecap="round"/>
</svg>
