<svg xmlns="http://www.w3.org/2000/svg" width="640" height="640" viewBox="0 0 640 640">
  <path d="M108 555V282C108 139 203 58 320 58s212 81 212 224v273"
        fill="#cfeff7" stroke="#33275f" stroke-width="18"/>
  <path d="M177 555V298c0-96 62-164 143-164s143 68 143 164v257z"
        fill="#5f74bc" stroke="#33275f" stroke-width="12"/>
  <path d="M320 102l-54-55-33 98-87-14 23 91-69 42 76 55"
        fill="#b5f7ef" stroke="#33275f" stroke-width="11" stroke-linejoin="round"/>
  <path d="M320 102l54-55 33 98 87-14-23 91 69 42-76 55"
        fill="#cdbdf7" stroke="#33275f" stroke-width="11" stroke-linejoin="round"/>
  <g fill="#fff5bd" stroke="#33275f" stroke-width="7">
    <circle cx="169" cy="418" r="17"/><circle cx="203" cy="376" r="17"/>
    <circle cx="237" cy="346" r="17"/><circle cx="271" cy="328" r="17"/>
    <circle cx="305" cy="319" r="17"/><circle cx="339" cy="319" r="17"/>
    <circle cx="373" cy="328" r="17"/><circle cx="407" cy="346" r="17"/>
    <circle cx="441" cy="376" r="17"/><circle cx="475" cy="418" r="17"/>
  </g>
</svg>
